<svg width="389" height="474" viewBox="0 0 389 474" fill="none" xmlns="http://www.w3.org/2000/svg">
<path d="M31.013 143.413L31.954 142.245L31.013 143.413ZM83.0828 171.056L83.592 169.645L83.0828 171.056ZM195.33 220.213L194.591 221.518L195.33 220.213ZM336.238 349.963L334.939 350.714L336.238 349.963ZM379.868 472.85C380.583 473.267 381.502 473.025 381.919 472.31L388.722 460.649C389.14 459.934 388.898 459.015 388.182 458.598C387.467 458.18 386.548 458.422 386.131 459.137L380.084 469.502L369.719 463.455C369.003 463.038 368.085 463.28 367.667 463.995C367.25 464.711 367.491 465.629 368.207 466.047L379.868 472.85ZM18.7593 0.484277C16.179 13.4401 12.4036 26.2328 8.9487 38.8916C5.50396 51.5132 2.38307 63.9859 1.1913 76.1399C-0.00198738 88.3094 0.731184 100.221 5.03657 111.717C9.34571 123.222 17.1945 134.208 30.072 144.582L31.954 142.245C19.4353 132.161 11.9414 121.599 7.846 110.664C3.74687 99.7194 3.01369 88.2962 4.17698 76.4326C5.3418 64.5535 8.4004 52.2947 11.8428 39.6815C15.2751 27.1056 19.0945 14.1603 21.7015 1.07025L18.7593 0.484277ZM30.072 144.582C47.1005 158.299 64.2785 165.864 82.5735 172.467L83.592 169.645C65.4312 163.09 48.6084 155.661 31.954 142.245L30.072 144.582ZM82.5735 172.467C120.654 186.212 157.395 200.459 194.591 221.518L196.069 218.908C158.644 197.718 121.705 183.402 83.592 169.645L82.5735 172.467ZM194.591 221.518C248.67 252.137 298.57 287.824 334.939 350.714L337.536 349.212C300.778 285.65 250.343 249.636 196.069 218.908L194.591 221.518ZM334.939 350.714C356.252 387.569 368.427 431.09 379.173 471.936L382.074 471.172C371.337 430.36 359.078 386.463 337.536 349.212L334.939 350.714Z" fill="#C6C6C6"/>
</svg>
