<svg width="30" height="30" viewBox="0 0 30 29" fill="none" xmlns="http://www.w3.org/2000/svg">
<path id="Star 1" d="M15 0L15.5668 11.8336L20.8977 1.25359L16.6023 12.2946L25.7756 4.79761L17.3608 13.137L28.7903 10.0193L17.7111 14.2151L29.4206 16.0157L17.5926 15.3424L27.5574 21.75L17.0258 16.3241L23.5229 26.2307L16.1088 16.9903L18.0147 28.6831L15 17.226L11.9853 28.6831L13.8912 16.9903L6.47711 26.2307L12.9742 16.3241L2.44263 21.75L12.4074 15.3424L0.579432 16.0157L12.2889 14.2151L1.20968 10.0193L12.6392 13.137L4.2244 4.79761L13.3977 12.2946L9.10232 1.25359L14.4332 11.8336L15 0Z" fill="white"/>
</svg>
