<svg width="24" height="24" viewBox="0 0 24 24" fill="none" xmlns="http://www.w3.org/2000/svg">
<path id="Star 1" d="M12 0L12.469 9.7933L16.8808 1.03745L13.326 10.1749L20.9177 3.97043L13.9538 10.872L23.4127 8.2918L14.2436 11.7642L23.9343 13.2543L14.1456 12.6971L22.3923 18L13.6765 13.5096L19.0534 21.7082L12.9176 14.061L14.4949 23.7378L12 14.256L9.50506 23.7378L11.0824 14.061L4.94658 21.7082L10.3235 13.5096L1.6077 18L9.85442 12.6971L0.0657377 13.2543L9.75636 11.7642L0.587322 8.2918L10.0462 10.872L3.08226 3.97043L10.674 10.1749L7.11916 1.03745L11.531 9.7933L12 0Z" fill="#D0FF6D"/>
</svg>
