<svg width="25" height="24" viewBox="0 0 25 24" fill="none" xmlns="http://www.w3.org/2000/svg">
<g id="vuesax/bold/location-tick">
<path id="Vector" d="M21.2867 8.7C20.2467 4.07 16.2067 2 12.6667 2C12.6667 2 12.6667 2 12.6567 2C9.12674 2 5.09674 4.07 4.04674 8.69C2.86674 13.85 6.02674 18.22 8.88674 20.98C9.94674 22 11.3067 22.51 12.6667 22.51C14.0267 22.51 15.3867 22 16.4367 20.98C19.2967 18.22 22.4567 13.86 21.2867 8.7ZM15.9467 9.53L11.9467 13.53C11.7967 13.68 11.6067 13.75 11.4167 13.75C11.2267 13.75 11.0367 13.68 10.8867 13.53L9.38674 12.03C9.09674 11.74 9.09674 11.26 9.38674 10.97C9.67674 10.68 10.1567 10.68 10.4467 10.97L11.4167 11.94L14.8867 8.47C15.1767 8.18 15.6567 8.18 15.9467 8.47C16.2367 8.76 16.2367 9.24 15.9467 9.53Z" fill="#292D32"/>
</g>
</svg>
