<svg width="25" height="25" viewBox="0 0 25 25" fill="none" xmlns="http://www.w3.org/2000/svg">
<g id="vuesax/linear/call-calling">
<g id="call-calling">
<g id="call-calling_2">
<path id="Vector" d="M22.3035 18.83C22.3035 19.19 22.2235 19.56 22.0535 19.92C21.8835 20.28 21.6635 20.62 21.3735 20.94C20.8835 21.48 20.3435 21.87 19.7335 22.12C19.1335 22.37 18.4835 22.5 17.7835 22.5C16.7635 22.5 15.6735 22.26 14.5235 21.77C13.3735 21.28 12.2235 20.62 11.0835 19.79C9.9335 18.95 8.8435 18.02 7.8035 16.99C6.7735 15.95 5.8435 14.86 5.0135 13.72C4.1935 12.58 3.5335 11.44 3.0535 10.31C2.5735 9.17 2.3335 8.08 2.3335 7.04C2.3335 6.36 2.4535 5.71 2.6935 5.11C2.9335 4.5 3.3135 3.94 3.8435 3.44C4.4835 2.81 5.1835 2.5 5.9235 2.5C6.2035 2.5 6.4835 2.56 6.7335 2.68C6.9935 2.8 7.2235 2.98 7.4035 3.24L9.7235 6.51C9.9035 6.76 10.0335 6.99 10.1235 7.21C10.2135 7.42 10.2635 7.63 10.2635 7.82C10.2635 8.06 10.1935 8.3 10.0535 8.53C9.9235 8.76 9.7335 9 9.4935 9.24L8.7335 10.03C8.6235 10.14 8.5735 10.27 8.5735 10.43C8.5735 10.51 8.5835 10.58 8.6035 10.66C8.6335 10.74 8.6635 10.8 8.6835 10.86C8.8635 11.19 9.1735 11.62 9.6135 12.14C10.0635 12.66 10.5435 13.19 11.0635 13.72C11.6035 14.25 12.1235 14.74 12.6535 15.19C13.1735 15.63 13.6035 15.93 13.9435 16.11C13.9935 16.13 14.0535 16.16 14.1235 16.19C14.2035 16.22 14.2835 16.23 14.3735 16.23C14.5435 16.23 14.6735 16.17 14.7835 16.06L15.5435 15.31C15.7935 15.06 16.0335 14.87 16.2635 14.75C16.4935 14.61 16.7235 14.54 16.9735 14.54C17.1635 14.54 17.3635 14.58 17.5835 14.67C17.8035 14.76 18.0335 14.89 18.2835 15.06L21.5935 17.41C21.8535 17.59 22.0335 17.8 22.1435 18.05C22.2435 18.3 22.3035 18.55 22.3035 18.83Z" stroke="#292D32" stroke-width="1.5" stroke-miterlimit="10"/>
<path id="Vector_2" d="M18.8335 9.5C18.8335 8.9 18.3635 7.98 17.6635 7.23C17.0235 6.54 16.1735 6 15.3335 6" stroke="#292D32" stroke-width="1.5" stroke-linecap="round" stroke-linejoin="round"/>
<path id="Vector_3" d="M22.3335 9.5C22.3335 5.63 19.2035 2.5 15.3335 2.5" stroke="#292D32" stroke-width="1.5" stroke-linecap="round" stroke-linejoin="round"/>
</g>
</g>
</g>
</svg>
